<svg id="Layer_1" data-name="Layer 1" xmlns="http://www.w3.org/2000/svg" viewBox="0 0 1000 500"><defs><style>.cls-1{fill:#fff;}</style></defs><path class="cls-1" d="M328.58,250c0,30.46-39.85,56.22-94.67,64.7l5.81-10.1c32.64-10.07,55-30.73,55-54.6,0-25.55-25.65-47.43-62.08-56.58l5.05-7.51h0C290.55,195,328.58,220.25,328.58,250Z"/><path class="cls-1" d="M155.36,306.31,150.73,314c-52.51-9.16-90.23-34.34-90.23-64,0-30.78,40.68-56.75,96.38-65l-5.14,9.64c-33.93,9.8-57.4,30.88-57.4,55.32C94.34,275.3,119.48,297,155.36,306.31Z"/><path class="cls-1" d="M186.08,275.38c0,11.16-6,24.14-12.15,34.49h0c-1.4,2.37-2.82,4.61-4.17,6.64-4-.36-7.83-.83-11.66-1.37,1.5-2.13,3.11-4.52,4.74-7.1,6.39-10.15,12.84-23,12.84-32.66,0-9-5.32-17.86-11-27.25-6.11-10.21-12.45-20.76-12.45-32.62,0-9.57,1.73-16.37,4.55-22.18a59,59,0,0,1,5.46-9c4.56-.57,9.22-1,14-1.34l-1.66,2.22c-1.46,1.93-2.8,3.7-4,5.42-5,7-7.9,13.18-7.9,24.9,0,9,5.32,17.86,11,27.25C179.74,253,186.08,263.52,186.08,275.38Z"/><path class="cls-1" d="M194.93,182.33c-.73,1-1.44,1.93-2.15,2.86-1,1.29-1.9,2.53-2.77,3.71-5.76,7.82-9.13,14-9.13,26.61H170.47c0-11.58,2.53-19.1,6.43-25.74a85.14,85.14,0,0,1,4.77-7.13q6.35-.31,12.87-.31Z"/><path class="cls-1" d="M222.52,275.38c0,11.37-6.22,24.6-12.49,35.05h0c-1.49,2.53-3,4.87-4.42,7h0c-3.65.16-7.32.24-11,.24h-1.82c1.39-1.9,2.94-4.1,4.54-6.52,7-10.52,14.85-25.05,14.85-35.76,0-9-5.32-17.86-11-27.25-6.12-10.21-12.45-20.76-12.45-32.62,0-12.12,2.78-19.79,7-26.66,1.33-2.2,2.81-4.31,4.4-6.45q6.39.1,12.61.56c-.57.75-1.13,1.51-1.68,2.23-1.1,1.47-2.16,2.85-3.12,4.19-5.54,7.6-8.78,13.75-8.78,26.13,0,9,5.32,17.86,11,27.25C216.18,253,222.52,263.52,222.52,275.38Z"/><path class="cls-1" d="M240.74,275.38c0,10.22-5,22-10.61,31.81-1.77,3.15-3.6,6.11-5.35,8.75q-6.61.78-13.46,1.2c1.56-2.15,3.31-4.68,5.1-7.44,6.71-10.38,13.91-24.1,13.91-34.32,0-9-5.32-17.86-11-27.25-6.12-10.21-12.46-20.76-12.46-32.62,0-11.5,2.52-19,6.35-25.61h0a76,76,0,0,1,4.34-6.57c4.08.35,8.07.81,12,1.34-.13.19-.26.35-.39.52-1.74,2.31-3.32,4.4-4.71,6.43-4.57,6.65-7.2,12.74-7.2,23.89,0,9,5.33,17.86,11,27.25C234.4,253,240.74,263.52,240.74,275.38Z"/><path class="cls-1" d="M394.79,219.15l5.53,1.39A18.62,18.62,0,0,1,394.06,231,17.25,17.25,0,0,1,383,234.53q-6.76,0-11-2.75a17.18,17.18,0,0,1-6.45-8,28.36,28.36,0,0,1-2.21-11.22,24.69,24.69,0,0,1,2.49-11.4,17.16,17.16,0,0,1,7.11-7.39,20.68,20.68,0,0,1,10.15-2.53,17.19,17.19,0,0,1,10.56,3.2,16.61,16.61,0,0,1,6,9l-5.45,1.28a13,13,0,0,0-4.22-6.65,11.27,11.27,0,0,0-7-2.08,13.54,13.54,0,0,0-8.06,2.31,12.16,12.16,0,0,0-4.55,6.21,24.85,24.85,0,0,0-1.32,8,25.45,25.45,0,0,0,1.56,9.32,11.56,11.56,0,0,0,4.84,5.95,13.46,13.46,0,0,0,7.1,2,11.89,11.89,0,0,0,7.88-2.68A13.72,13.72,0,0,0,394.79,219.15Z"/><path class="cls-1" d="M427.24,224.05l5.31.66a13,13,0,0,1-4.65,7.22,14,14,0,0,1-8.68,2.57q-6.66,0-10.55-4.09t-3.89-11.49q0-7.65,3.94-11.88a13.33,13.33,0,0,1,10.21-4.22,13,13,0,0,1,9.94,4.14q3.84,4.14,3.85,11.64c0,.31,0,.77,0,1.37h-22.6q.29,5,2.82,7.65a8.42,8.42,0,0,0,6.34,2.66,7.85,7.85,0,0,0,4.82-1.49A9.87,9.87,0,0,0,427.24,224.05Zm-16.87-8.3H427.3a10.35,10.35,0,0,0-1.94-5.74,7.88,7.88,0,0,0-6.37-3,8.16,8.16,0,0,0-5.95,2.37A9.38,9.38,0,0,0,410.37,215.75Z"/><path class="cls-1" d="M439,233.82V203.51h4.62v4.31a10.9,10.9,0,0,1,9.65-5,12.8,12.8,0,0,1,5,1,8,8,0,0,1,3.44,2.59,9.82,9.82,0,0,1,1.59,3.79,29.44,29.44,0,0,1,.29,5v18.64h-5.14V215.38a13.88,13.88,0,0,0-.6-4.7,5,5,0,0,0-2.12-2.48,6.78,6.78,0,0,0-3.59-.93,8.33,8.33,0,0,0-5.66,2.09q-2.38,2.08-2.38,7.9v16.56Z"/><path class="cls-1" d="M482.72,229.22l.75,4.54a19.44,19.44,0,0,1-3.89.46,8.74,8.74,0,0,1-4.33-.89,4.87,4.87,0,0,1-2.17-2.33q-.63-1.44-.63-6.06V207.5h-3.77v-4h3.77V196l5.11-3.08v10.59h5.16v4h-5.16v17.73a9,9,0,0,0,.27,2.82,2.13,2.13,0,0,0,.88,1,3.42,3.42,0,0,0,1.76.37A17.18,17.18,0,0,0,482.72,229.22Z"/><path class="cls-1" d="M487.69,233.82V203.51h4.62v4.59a12.46,12.46,0,0,1,3.27-4.25,5.68,5.68,0,0,1,3.3-1,10,10,0,0,1,5.28,1.66l-1.77,4.76a7.37,7.37,0,0,0-3.77-1.11,4.9,4.9,0,0,0-3,1,5.51,5.51,0,0,0-1.92,2.81,20.09,20.09,0,0,0-.85,6v15.87Z"/><path class="cls-1" d="M527.08,233.82v-4.46a11.09,11.09,0,0,1-9.62,5.14,12.17,12.17,0,0,1-5-1,8.26,8.26,0,0,1-3.46-2.58,9.82,9.82,0,0,1-1.58-3.81,26.12,26.12,0,0,1-.31-4.79V203.51h5.13v16.81a29.68,29.68,0,0,0,.32,5.42,5.36,5.36,0,0,0,2.05,3.18,6.39,6.39,0,0,0,3.89,1.16,8.43,8.43,0,0,0,4.33-1.19,6.58,6.58,0,0,0,2.87-3.22,16.23,16.23,0,0,0,.84-5.92V203.51h5.14v30.31Z"/><path class="cls-1" d="M539.61,233.82V192h5.13v41.85Z"/><path class="cls-1" d="M588.61,233.82V230a9.42,9.42,0,0,1-8.48,4.51,11.91,11.91,0,0,1-6.66-2,13.07,13.07,0,0,1-4.71-5.58,19.29,19.29,0,0,1-1.67-8.23,21.47,21.47,0,0,1,1.51-8.23,11.9,11.9,0,0,1,4.54-5.67,12.16,12.16,0,0,1,6.76-2,10.15,10.15,0,0,1,4.89,1.16,10.27,10.27,0,0,1,3.48,3V192h5.11v41.85Zm-16.24-15.13q0,5.82,2.45,8.7a7.4,7.4,0,0,0,5.8,2.89,7.26,7.26,0,0,0,5.72-2.76q2.35-2.75,2.36-8.4c0-4.15-.8-7.19-2.4-9.14a7.38,7.38,0,0,0-5.91-2.91,7.13,7.13,0,0,0-5.72,2.8Q572.38,212.68,572.37,218.69Z"/><path class="cls-1" d="M622.2,224.05l5.31.66a13,13,0,0,1-4.65,7.22,14,14,0,0,1-8.68,2.57q-6.64,0-10.54-4.09t-3.9-11.49q0-7.65,3.94-11.88a13.36,13.36,0,0,1,10.22-4.22,13,13,0,0,1,9.93,4.14q3.85,4.14,3.85,11.64c0,.31,0,.77,0,1.37h-22.6q.29,5,2.83,7.65a8.4,8.4,0,0,0,6.33,2.66,7.88,7.88,0,0,0,4.83-1.49A9.86,9.86,0,0,0,622.2,224.05Zm-16.86-8.3h16.92a10.27,10.27,0,0,0-1.94-5.74,7.88,7.88,0,0,0-6.36-3,8.18,8.18,0,0,0-6,2.37A9.42,9.42,0,0,0,605.34,215.75Z"/><path class="cls-1" d="M650.69,233.82V192H659l9.91,29.63q1.37,4.14,2,6.19.72-2.28,2.23-6.7l10-29.12h7.45v41.85h-5.34v-35l-12.16,35h-5L656,198.2v35.62Z"/><path class="cls-1" d="M719.64,224.05l5.31.66a13,13,0,0,1-4.65,7.22,14,14,0,0,1-8.68,2.57q-6.64,0-10.54-4.09t-3.9-11.49q0-7.65,3.94-11.88a13.36,13.36,0,0,1,10.22-4.22,13,13,0,0,1,9.93,4.14q3.86,4.14,3.85,11.64c0,.31,0,.77,0,1.37h-22.6q.28,5,2.83,7.65a8.4,8.4,0,0,0,6.33,2.66,7.88,7.88,0,0,0,4.83-1.49A9.86,9.86,0,0,0,719.64,224.05Zm-16.86-8.3H719.7a10.35,10.35,0,0,0-1.94-5.74,7.88,7.88,0,0,0-6.36-3,8.17,8.17,0,0,0-6,2.37A9.42,9.42,0,0,0,702.78,215.75Z"/><path class="cls-1" d="M751.07,233.82V230a9.42,9.42,0,0,1-8.48,4.51,11.87,11.87,0,0,1-6.66-2,13.07,13.07,0,0,1-4.71-5.58,19.14,19.14,0,0,1-1.67-8.23,21.47,21.47,0,0,1,1.51-8.23,11.9,11.9,0,0,1,4.54-5.67,12.13,12.13,0,0,1,6.76-2,10.09,10.09,0,0,1,4.88,1.16,10.21,10.21,0,0,1,3.49,3V192h5.1v41.85Zm-16.24-15.13q0,5.82,2.45,8.7a7.4,7.4,0,0,0,5.8,2.89,7.26,7.26,0,0,0,5.72-2.76q2.36-2.75,2.35-8.4c0-4.15-.8-7.19-2.39-9.14a7.38,7.38,0,0,0-5.91-2.91,7.15,7.15,0,0,0-5.73,2.8Q734.83,212.68,734.83,218.69Z"/><path class="cls-1" d="M763.94,197.88V192h5.14v5.91Zm0,35.94V203.51h5.14v30.31Z"/><path class="cls-1" d="M797.65,224.05l5.3.66a12.88,12.88,0,0,1-4.65,7.22,14,14,0,0,1-8.67,2.57q-6.66,0-10.55-4.09t-3.9-11.49q0-7.65,3.94-11.88a13.36,13.36,0,0,1,10.22-4.22,13,13,0,0,1,9.93,4.14q3.86,4.14,3.86,11.64c0,.31,0,.77,0,1.37H780.49q.28,5,2.83,7.65a8.4,8.4,0,0,0,6.33,2.66,7.86,7.86,0,0,0,4.83-1.49A9.87,9.87,0,0,0,797.65,224.05Zm-16.87-8.3H797.7a10.2,10.2,0,0,0-1.94-5.74,7.86,7.86,0,0,0-6.36-3,8.14,8.14,0,0,0-5.95,2.37A9.38,9.38,0,0,0,780.78,215.75Z"/><path class="cls-1" d="M809.35,233.82V203.51H814v4.59a12.46,12.46,0,0,1,3.27-4.25,5.68,5.68,0,0,1,3.3-1,10,10,0,0,1,5.28,1.66l-1.77,4.76a7.37,7.37,0,0,0-3.77-1.11,5,5,0,0,0-3,1,5.56,5.56,0,0,0-1.91,2.81,20.09,20.09,0,0,0-.85,6v15.87Z"/><path class="cls-1" d="M849.62,224.05l5.31.66a13,13,0,0,1-4.65,7.22,14,14,0,0,1-8.68,2.57q-6.65,0-10.55-4.09t-3.89-11.49q0-7.65,3.94-11.88a13.33,13.33,0,0,1,10.21-4.22,13,13,0,0,1,9.94,4.14q3.86,4.14,3.85,11.64c0,.31,0,.77,0,1.37h-22.6q.28,5,2.82,7.65a8.43,8.43,0,0,0,6.34,2.66,7.85,7.85,0,0,0,4.82-1.49A9.87,9.87,0,0,0,849.62,224.05Zm-16.87-8.3h16.93a10.35,10.35,0,0,0-1.94-5.74,7.88,7.88,0,0,0-6.37-3,8.16,8.16,0,0,0-6,2.37A9.38,9.38,0,0,0,832.75,215.75Z"/><path class="cls-1" d="M875.56,224.77l5.08-.8a7.08,7.08,0,0,0,2.39,4.68,8.31,8.31,0,0,0,5.46,1.63q3.54,0,5.25-1.44a4.3,4.3,0,0,0,1.72-3.39,3.13,3.13,0,0,0-1.52-2.74,22.78,22.78,0,0,0-5.25-1.74,46.86,46.86,0,0,1-7.83-2.47,7.5,7.5,0,0,1-3.31-2.88,7.66,7.66,0,0,1-1.13-4.07,7.78,7.78,0,0,1,.93-3.75,8.38,8.38,0,0,1,2.52-2.87,10.62,10.62,0,0,1,3.27-1.5,15.88,15.88,0,0,1,4.44-.61,17.37,17.37,0,0,1,6.26,1,8.52,8.52,0,0,1,4,2.78,11.06,11.06,0,0,1,1.77,4.7l-5,.68a5.49,5.49,0,0,0-2-3.65A7.24,7.24,0,0,0,888,207q-3.54,0-5.05,1.17a3.42,3.42,0,0,0-1.51,2.74,2.87,2.87,0,0,0,.62,1.8,4.57,4.57,0,0,0,2,1.37c.52.19,2,.63,4.54,1.32a63.54,63.54,0,0,1,7.61,2.38,7.77,7.77,0,0,1,3.38,2.7,7.5,7.5,0,0,1,1.23,4.39,8.63,8.63,0,0,1-1.5,4.84,9.71,9.71,0,0,1-4.33,3.51,15.67,15.67,0,0,1-6.39,1.24q-5.91,0-9-2.45A11.42,11.42,0,0,1,875.56,224.77Zm8.91,12.87,1.48-5h3.83l-.95,3a6.06,6.06,0,0,1,3.66,1.5,3.72,3.72,0,0,1,1.23,2.7,4.76,4.76,0,0,1-2.06,3.78q-2.05,1.63-6.19,1.64a21.72,21.72,0,0,1-4.11-.34l.31-3.34c1.22.08,2.11.11,2.68.11a7,7,0,0,0,3.77-.74,1.68,1.68,0,0,0,.83-1.4,1.4,1.4,0,0,0-.33-.91,2.55,2.55,0,0,0-1.21-.69A11.23,11.23,0,0,0,884.47,237.64Z"/><path class="cls-1" d="M906.87,197.88V192H912v5.91Zm0,35.94V203.51H912v30.31Z"/><path class="cls-1" d="M363.05,290.52l5.22-.46a11.61,11.61,0,0,0,1.73,5.15,9.46,9.46,0,0,0,4.21,3.26,16.05,16.05,0,0,0,6.42,1.24,15.39,15.39,0,0,0,5.6-.95,7.7,7.7,0,0,0,3.61-2.58A6,6,0,0,0,391,292.6a5.46,5.46,0,0,0-1.14-3.44,8.5,8.5,0,0,0-3.77-2.47,71.59,71.59,0,0,0-7.45-2,37.76,37.76,0,0,1-8.07-2.61,11.36,11.36,0,0,1-4.47-3.9,9.53,9.53,0,0,1-1.47-5.21,10.63,10.63,0,0,1,1.8-5.92,11.17,11.17,0,0,1,5.25-4.18,19.94,19.94,0,0,1,7.68-1.43,20.93,20.93,0,0,1,8.2,1.5,11.88,11.88,0,0,1,5.47,4.41,12.66,12.66,0,0,1,2.05,6.6l-5.31.39a8.56,8.56,0,0,0-2.89-6q-2.47-2-7.3-2c-3.35,0-5.78.61-7.32,1.84a5.49,5.49,0,0,0-2.29,4.43,4.76,4.76,0,0,0,1.62,3.71q1.61,1.46,8.35,3a53.42,53.42,0,0,1,9.26,2.67,12.66,12.66,0,0,1,5.4,4.26,10.4,10.4,0,0,1,1.74,5.95,11.43,11.43,0,0,1-1.91,6.3A12.58,12.58,0,0,1,389,303a19,19,0,0,1-8.06,1.64,24.14,24.14,0,0,1-9.52-1.65,13.37,13.37,0,0,1-6-5A14.14,14.14,0,0,1,363.05,290.52Z"/><path class="cls-1" d="M424,294.2l5.31.65a12.9,12.9,0,0,1-4.65,7.23,14,14,0,0,1-8.68,2.56q-6.64,0-10.54-4.09t-3.9-11.49q0-7.65,3.94-11.87A13.33,13.33,0,0,1,415.71,273a13,13,0,0,1,9.93,4.14q3.86,4.14,3.85,11.65c0,.3,0,.76,0,1.37H406.86q.28,5,2.83,7.65a8.39,8.39,0,0,0,6.33,2.65,7.88,7.88,0,0,0,4.83-1.48A9.86,9.86,0,0,0,424,294.2Zm-16.86-8.31h16.92a10.21,10.21,0,0,0-1.94-5.73,7.88,7.88,0,0,0-6.36-3,8.14,8.14,0,0,0-5.95,2.37A9.36,9.36,0,0,0,407.15,285.89Z"/><path class="cls-1" d="M455.55,292.86l5.05.65a13.05,13.05,0,0,1-4.24,8.18,12.32,12.32,0,0,1-8.37,2.95,13,13,0,0,1-10-4.06q-3.8-4.06-3.79-11.66a21,21,0,0,1,1.63-8.59,11.35,11.35,0,0,1,4.95-5.53A14.79,14.79,0,0,1,448,273a12.58,12.58,0,0,1,8.07,2.5,11.44,11.44,0,0,1,4,7.09l-5,.77a8.26,8.26,0,0,0-2.52-4.59,6.53,6.53,0,0,0-4.38-1.54,8,8,0,0,0-6.31,2.78c-1.62,1.86-2.43,4.79-2.43,8.81s.78,7,2.34,8.87a7.61,7.61,0,0,0,6.11,2.77,7.18,7.18,0,0,0,5.05-1.86A9.16,9.16,0,0,0,455.55,292.86Z"/><path class="cls-1" d="M484.86,304v-4.45a11.09,11.09,0,0,1-9.61,5.13,12.33,12.33,0,0,1-5-1,8.3,8.3,0,0,1-3.46-2.59,9.55,9.55,0,0,1-1.58-3.81,26,26,0,0,1-.31-4.79V273.65H470v16.81a29.68,29.68,0,0,0,.32,5.42,5.32,5.32,0,0,0,2.05,3.18,6.31,6.31,0,0,0,3.88,1.16,8.45,8.45,0,0,0,4.34-1.18,6.6,6.6,0,0,0,2.87-3.23,16.19,16.19,0,0,0,.84-5.92V273.65h5.14V304Z"/><path class="cls-1" d="M497.45,304V273.65h4.62v4.59a12.57,12.57,0,0,1,3.27-4.25,5.75,5.75,0,0,1,3.3-1,10.07,10.07,0,0,1,5.28,1.66l-1.77,4.77a7.29,7.29,0,0,0-3.77-1.12,4.85,4.85,0,0,0-3,1,5.36,5.36,0,0,0-1.91,2.81,19.66,19.66,0,0,0-.86,6V304Z"/><path class="cls-1" d="M517,268v-5.91h5.14V268ZM517,304V273.65h5.14V304Z"/><path class="cls-1" d="M541.18,299.36l.74,4.54a18.72,18.72,0,0,1-3.88.46,8.78,8.78,0,0,1-4.34-.89,4.94,4.94,0,0,1-2.17-2.32q-.63-1.44-.63-6.07V277.64h-3.77v-4h3.77v-7.51l5.11-3.08v10.59h5.17v4H536v17.73a8.93,8.93,0,0,0,.27,2.82,2.1,2.1,0,0,0,.89,1,3.35,3.35,0,0,0,1.75.37A15.83,15.83,0,0,0,541.18,299.36Z"/><path class="cls-1" d="M566,300.22a19.31,19.31,0,0,1-5.5,3.43,16,16,0,0,1-5.66,1q-5,0-7.68-2.44a8,8,0,0,1-2.68-6.23,8.25,8.25,0,0,1,1-4.07,8.4,8.4,0,0,1,2.65-2.95,12.37,12.37,0,0,1,3.7-1.69,38.53,38.53,0,0,1,4.57-.77,46.17,46.17,0,0,0,9.16-1.77c0-.7,0-1.15,0-1.34,0-2.09-.49-3.57-1.46-4.42q-2-1.74-5.85-1.74a9.05,9.05,0,0,0-5.35,1.27,7.72,7.72,0,0,0-2.55,4.49l-5-.68a12.44,12.44,0,0,1,2.26-5.21,9.92,9.92,0,0,1,4.54-3.06A20.27,20.27,0,0,1,559,273a18.18,18.18,0,0,1,6.31.92,8.33,8.33,0,0,1,3.57,2.29,8.2,8.2,0,0,1,1.6,3.5,29.41,29.41,0,0,1,.25,4.74v6.85a72.4,72.4,0,0,0,.33,9.06,11.35,11.35,0,0,0,1.3,3.64H567A10.92,10.92,0,0,1,566,300.22Zm-.43-11.47a37.66,37.66,0,0,1-8.39,1.94,18.62,18.62,0,0,0-4.48,1,4.49,4.49,0,0,0-1.19,7.53,6.73,6.73,0,0,0,4.56,1.37,10.53,10.53,0,0,0,5.27-1.3,7.92,7.92,0,0,0,3.4-3.55,12.46,12.46,0,0,0,.83-5.14Z"/><path class="cls-1" d="M589.92,299.36l.75,4.54a18.74,18.74,0,0,1-3.89.46,8.74,8.74,0,0,1-4.33-.89,4.94,4.94,0,0,1-2.17-2.32q-.63-1.44-.63-6.07V277.64h-3.77v-4h3.77v-7.51l5.11-3.08v10.59h5.16v4h-5.16v17.73a8.93,8.93,0,0,0,.27,2.82,2.08,2.08,0,0,0,.88,1,3.42,3.42,0,0,0,1.76.37A15.59,15.59,0,0,0,589.92,299.36Z"/><path class="cls-1" d="M615.7,294.2l5.3.65a12.9,12.9,0,0,1-4.65,7.23,14,14,0,0,1-8.67,2.56q-6.66,0-10.55-4.09t-3.9-11.49q0-7.65,3.94-11.87A13.33,13.33,0,0,1,607.39,273a13,13,0,0,1,9.93,4.14q3.85,4.14,3.86,11.65c0,.3,0,.76,0,1.37H598.54q.29,5,2.83,7.65a8.39,8.39,0,0,0,6.33,2.65,7.86,7.86,0,0,0,4.83-1.48A9.87,9.87,0,0,0,615.7,294.2Zm-16.87-8.31h16.92a10.13,10.13,0,0,0-1.94-5.73,7.86,7.86,0,0,0-6.36-3,8.14,8.14,0,0,0-6,2.37A9.36,9.36,0,0,0,598.83,285.89Z"/><path class="cls-1" d="M674.21,289.29l5.53,1.4a18.65,18.65,0,0,1-6.26,10.4,17.25,17.25,0,0,1-11.06,3.58q-6.76,0-11-2.75a17.18,17.18,0,0,1-6.45-8,28.37,28.37,0,0,1-2.22-11.22,24.75,24.75,0,0,1,2.5-11.4,17.1,17.1,0,0,1,7.11-7.39,20.78,20.78,0,0,1,10.14-2.53,17.14,17.14,0,0,1,10.56,3.2,16.57,16.57,0,0,1,6,9l-5.45,1.29a12.85,12.85,0,0,0-4.23-6.65,11.22,11.22,0,0,0-7-2.09,13.52,13.52,0,0,0-8.06,2.31,12.2,12.2,0,0,0-4.55,6.21,24.91,24.91,0,0,0-1.32,8A25.43,25.43,0,0,0,650,292a11.58,11.58,0,0,0,4.84,6,13.54,13.54,0,0,0,7.1,2,11.91,11.91,0,0,0,7.88-2.68A13.72,13.72,0,0,0,674.21,289.29Z"/><path class="cls-1" d="M684,288.8q0-8.42,4.69-12.47a14.11,14.11,0,0,1,9.53-3.37,13.61,13.61,0,0,1,10.22,4.1q4,4.1,4,11.32,0,5.85-1.75,9.2a12.4,12.4,0,0,1-5.11,5.21,14.86,14.86,0,0,1-7.32,1.85,13.64,13.64,0,0,1-10.29-4.08Q684,296.48,684,288.8Zm5.29,0c0,3.89.84,6.79,2.54,8.72a8.45,8.45,0,0,0,12.75,0c1.7-1.94,2.54-4.9,2.54-8.88q0-5.62-2.55-8.52a8.47,8.47,0,0,0-12.74,0C690.12,282,689.28,284.92,689.28,288.8Z"/><path class="cls-1" d="M718.42,304V273.65H723v4.25a10.8,10.8,0,0,1,3.8-3.58A10.68,10.68,0,0,1,732.2,273a10,10,0,0,1,5.52,1.4,7.48,7.48,0,0,1,3,3.91q3.6-5.31,9.37-5.31a9.25,9.25,0,0,1,6.93,2.5q2.43,2.51,2.43,7.69V304h-5.11V284.87a14.12,14.12,0,0,0-.5-4.44,4.33,4.33,0,0,0-1.81-2.19,5.71,5.71,0,0,0-3.09-.82,7.17,7.17,0,0,0-5.3,2.12q-2.11,2.13-2.12,6.81V304h-5.13V284.27a8.63,8.63,0,0,0-1.26-5.14,4.77,4.77,0,0,0-4.11-1.71,7.47,7.47,0,0,0-4,1.14,6.43,6.43,0,0,0-2.67,3.34,18.77,18.77,0,0,0-.83,6.33V304Z"/><path class="cls-1" d="M787,304v-4.45a11.09,11.09,0,0,1-9.62,5.13,12.33,12.33,0,0,1-5-1,8.26,8.26,0,0,1-3.45-2.59,9.55,9.55,0,0,1-1.58-3.81,25.76,25.76,0,0,1-.32-4.79V273.65h5.14v16.81a30,30,0,0,0,.31,5.42,5.37,5.37,0,0,0,2.06,3.18,6.29,6.29,0,0,0,3.88,1.16,8.45,8.45,0,0,0,4.34-1.18,6.6,6.6,0,0,0,2.87-3.23,16.19,16.19,0,0,0,.84-5.92V273.65h5.14V304Z"/><path class="cls-1" d="M799.62,304V273.65h4.62V278a10.9,10.9,0,0,1,9.65-5,12.58,12.58,0,0,1,5,1,7.92,7.92,0,0,1,3.44,2.58,9.88,9.88,0,0,1,1.6,3.8,29.22,29.22,0,0,1,.29,5V304h-5.14V285.52a13.78,13.78,0,0,0-.6-4.69,5,5,0,0,0-2.13-2.49,6.84,6.84,0,0,0-3.58-.92,8.28,8.28,0,0,0-5.66,2.08c-1.59,1.39-2.39,4-2.39,7.91V304Z"/><path class="cls-1" d="M832.15,268v-5.91h5.14V268Zm0,35.93V273.65h5.14V304Z"/><path class="cls-1" d="M856.33,299.36l.74,4.54a18.72,18.72,0,0,1-3.88.46,8.78,8.78,0,0,1-4.34-.89,4.94,4.94,0,0,1-2.17-2.32q-.63-1.44-.63-6.07V277.64h-3.77v-4h3.77v-7.51l5.11-3.08v10.59h5.17v4h-5.17v17.73a8.93,8.93,0,0,0,.27,2.82,2.1,2.1,0,0,0,.89,1,3.38,3.38,0,0,0,1.75.37A15.83,15.83,0,0,0,856.33,299.36Z"/><path class="cls-1" d="M881.13,300.22a19.17,19.17,0,0,1-5.5,3.43,16,16,0,0,1-5.66,1q-5,0-7.68-2.44a8,8,0,0,1-2.68-6.23,8.41,8.41,0,0,1,3.67-7,12.2,12.2,0,0,1,3.69-1.69,38.53,38.53,0,0,1,4.57-.77,46.17,46.17,0,0,0,9.16-1.77c0-.7,0-1.15,0-1.34,0-2.09-.49-3.57-1.46-4.42q-2-1.74-5.85-1.74a9.05,9.05,0,0,0-5.35,1.27,7.72,7.72,0,0,0-2.55,4.49l-5-.68a12.44,12.44,0,0,1,2.26-5.21,9.92,9.92,0,0,1,4.54-3.06,20.31,20.31,0,0,1,6.87-1.07,18.14,18.14,0,0,1,6.31.92,8.33,8.33,0,0,1,3.57,2.29,8.2,8.2,0,0,1,1.6,3.5,29.07,29.07,0,0,1,.26,4.74v6.85a73.2,73.2,0,0,0,.32,9.06,11.35,11.35,0,0,0,1.3,3.64h-5.36A10.7,10.7,0,0,1,881.13,300.22Zm-.43-11.47a37.52,37.52,0,0,1-8.39,1.94,18.62,18.62,0,0,0-4.48,1,4.49,4.49,0,0,0-1.19,7.53,6.73,6.73,0,0,0,4.56,1.37,10.54,10.54,0,0,0,5.28-1.3,8,8,0,0,0,3.39-3.55,12.46,12.46,0,0,0,.83-5.14Z"/><path class="cls-1" d="M893.8,304V273.65h4.63v4.59a12.57,12.57,0,0,1,3.26-4.25,5.75,5.75,0,0,1,3.3-1,10.07,10.07,0,0,1,5.28,1.66l-1.77,4.77a7.29,7.29,0,0,0-3.77-1.12,4.85,4.85,0,0,0-3,1,5.42,5.42,0,0,0-1.91,2.81,19.66,19.66,0,0,0-.86,6V304Z"/><path class="cls-1" d="M933.1,300.22a19.13,19.13,0,0,1-5.49,3.43,16,16,0,0,1-5.67,1q-5,0-7.67-2.44a8,8,0,0,1-2.69-6.23,8.47,8.47,0,0,1,3.67-7,12.26,12.26,0,0,1,3.7-1.69,38.28,38.28,0,0,1,4.56-.77,46.17,46.17,0,0,0,9.16-1.77c0-.7,0-1.15,0-1.34,0-2.09-.48-3.57-1.45-4.42q-2-1.74-5.85-1.74a9.09,9.09,0,0,0-5.36,1.27,7.72,7.72,0,0,0-2.55,4.49l-5-.68a12.43,12.43,0,0,1,2.25-5.21,10,10,0,0,1,4.54-3.06,20.33,20.33,0,0,1,6.88-1.07,18.18,18.18,0,0,1,6.31.92,8.35,8.35,0,0,1,3.56,2.29,8.09,8.09,0,0,1,1.6,3.5,29.07,29.07,0,0,1,.26,4.74v6.85a72.4,72.4,0,0,0,.33,9.06,11.35,11.35,0,0,0,1.3,3.64h-5.37A10.92,10.92,0,0,1,933.1,300.22Zm-.43-11.47a37.52,37.52,0,0,1-8.39,1.94,18.74,18.74,0,0,0-4.48,1,4.4,4.4,0,0,0-2,1.67,4.52,4.52,0,0,0,.84,5.86,6.69,6.69,0,0,0,4.55,1.37,10.54,10.54,0,0,0,5.28-1.3,8,8,0,0,0,3.4-3.55,12.48,12.48,0,0,0,.82-5.14Zm-1.54-26.57h3.51a8.22,8.22,0,0,1-2.61,5.47,8.47,8.47,0,0,1-5.81,1.92,8.59,8.59,0,0,1-5.83-1.9,8.23,8.23,0,0,1-2.61-5.49h3.51a4.78,4.78,0,0,0,1.58,2.89,4.9,4.9,0,0,0,3.18,1,5.6,5.6,0,0,0,3.5-.93A4.69,4.69,0,0,0,931.13,262.18Z"/></svg>