<svg id="Layer_1" data-name="Layer 1" xmlns="http://www.w3.org/2000/svg" viewBox="0 0 500 500"><defs><style>.cls-1{fill:#e0e0e0;}</style></defs><rect class="cls-1" width="10" height="10"/><rect class="cls-1" x="100.01" width="10" height="10"/><rect class="cls-1" x="200.03" width="10" height="10"/><rect class="cls-1" y="100.01" width="10" height="10"/><rect class="cls-1" x="100.01" y="100.01" width="10" height="10"/><rect class="cls-1" x="200.03" y="100.01" width="10" height="10"/><rect class="cls-1" x="300.04" width="10" height="10"/><rect class="cls-1" x="400.05" width="10" height="10"/><rect class="cls-1" x="300.04" y="100.01" width="10" height="10"/><rect class="cls-1" x="400.05" y="100.01" width="10" height="10"/><rect class="cls-1" y="200.03" width="10" height="10"/><rect class="cls-1" y="300.04" width="10" height="10"/><rect class="cls-1" x="100.01" y="200.03" width="10" height="10"/><rect class="cls-1" x="200.03" y="200.03" width="10" height="10"/><rect class="cls-1" x="100.01" y="300.04" width="10" height="10"/><rect class="cls-1" x="200.03" y="300.04" width="10" height="10"/><rect class="cls-1" y="400.05" width="10" height="10"/><rect class="cls-1" x="100.01" y="400.05" width="10" height="10"/><rect class="cls-1" x="200.03" y="400.05" width="10" height="10"/><rect class="cls-1" x="300.04" y="200.03" width="10" height="10"/><rect class="cls-1" x="300.04" y="300.04" width="10" height="10"/><rect class="cls-1" x="400.05" y="200.03" width="10" height="10"/><rect class="cls-1" x="400.05" y="300.04" width="10" height="10"/><rect class="cls-1" x="300.04" y="400.05" width="10" height="10"/><rect class="cls-1" x="400.05" y="400.05" width="10" height="10"/><rect class="cls-1" x="400.05" width="10" height="10"/></svg>